<svg xmlns="http://www.w3.org/2000/svg" width="47.976" height="47.981" viewBox="0 0 47.976 47.981"><defs><style>.a{fill:#1a2647;}</style></defs><g transform="translate(-0.5)"><path class="a" d="M48.475,12.659a12.658,12.658,0,0,0-25.246-1.337l-5.316,5.316,2.106,2.106L6.1,36.646l1.873,1.873L.5,45.993l1.99,1.988,7.468-7.473L11.83,42.38l17.9-13.924,2.106,2.106,5.316-5.316A12.656,12.656,0,0,0,48.475,12.659ZM9.841,36.413l1.74-2.238,2.72,2.72-2.238,1.741Zm6.7-1.259-3.217-3.217,8.7-11.189,5.7,5.7Zm15.3-8.57-9.946-9.946,1.989-1.989,9.946,9.946ZM35.716,22.5,25.971,12.76A9.846,9.846,0,1,1,35.716,22.5Zm0,0"/><path class="a" d="M188.31,268.412l-1.989-1.989,3.978-3.978,1.989,1.989Zm0,0" transform="translate(-168.407 -237.851)"/></g></svg>