<svg xmlns="http://www.w3.org/2000/svg" width="54" height="54" viewBox="0 0 54 54"><defs><style>.a{fill:#1a2647;}</style></defs><g transform="translate(-1 -1)"><path class="a" d="M55,18.886a3.95,3.95,0,0,0-6.744-2.793l-2.582,2.582-2.868,2.868V13.124A6.093,6.093,0,0,0,41.935,1H7.1A6.1,6.1,0,0,0,1,7.1V50.645a.871.871,0,0,0,.871.871H6.226v2.613A.871.871,0,0,0,7.1,55H41.935a.871.871,0,0,0,.871-.871V32.715l8.454-8.454.894-.894a11.67,11.67,0,0,1-3.208,5.97L44.8,33.48l1.232,1.232,4.143-4.143a13.389,13.389,0,0,0,3.935-9.219A3.905,3.905,0,0,0,55,18.886Zm-5.512-1.562a2.208,2.208,0,1,1,3.123,3.123l-1.966,1.966L47.522,19.29Zm-3.2,3.2.946.946L36.274,32.43l-.946-.946ZM25.576,43.506l1.792-3.584,2.646,2.646L26.43,44.359Zm2.784-5.054L34.1,32.715l3.123,3.123-5.736,5.736ZM41.935,2.742a4.355,4.355,0,1,1,0,8.71H11.356a6.079,6.079,0,0,0,0-8.71ZM7.968,11.364V8.839a.872.872,0,0,1,.871-.871h2.525A4.368,4.368,0,0,1,7.968,11.364ZM2.742,49.774V7.1a4.355,4.355,0,0,1,8.622-.871H8.839A2.616,2.616,0,0,0,6.226,8.839V49.774Zm38.323,3.484H7.968V13.194h33.1V23.285L37.22,27.129H11.452v1.742H35.478l-1.742,1.742H11.452v1.742H31.994l-5.481,5.481a.853.853,0,0,0-.153.231l-.01-.005-2.613,5.226a.87.87,0,0,0,.164,1.005l.254.256-2,2,1.232,1.232,2-2,.255.255a.871.871,0,0,0,.616.255.883.883,0,0,0,.389-.091l5.226-2.613-.005-.01a.853.853,0,0,0,.231-.153l6.968-6.968,2-2ZM38.452,34.607l-.946-.946L48.468,22.7l.946.946Z"/><path class="a" d="M13,19H39.129v1.742H13Z" transform="translate(-1.548 -2.323)"/><path class="a" d="M13,23H39.129v1.742H13Z" transform="translate(-1.548 -2.839)"/><path class="a" d="M13,27H39.129v1.742H13Z" transform="translate(-1.548 -3.355)"/><path class="a" d="M13,51h9.581v1.742H13Z" transform="translate(-1.548 -6.452)"/><path class="a" d="M13,55H39.129v1.742H13Z" transform="translate(-1.548 -6.968)"/></g></svg>