<svg xmlns="http://www.w3.org/2000/svg" width="48.392" height="48.391" viewBox="0 0 48.392 48.391"><defs><style>.a{fill:#3a435e;}</style></defs><g transform="translate(-0.03 -0.001)"><path class="a" d="M47.615,52.261H.837a.807.807,0,0,1-.807-.807V20.807A.807.807,0,0,1,.837,20H47.615a.807.807,0,0,1,.807.807V51.455A.806.806,0,0,1,47.615,52.261ZM1.643,50.648H46.809V21.613H1.643Z" transform="translate(0 -3.869)"/><path class="a" d="M43.324,20.839H7.837a.807.807,0,0,1-.807-.807V16.807A.807.807,0,0,1,7.837,16H43.324a.807.807,0,0,1,.807.807v3.226A.806.806,0,0,1,43.324,20.839ZM8.643,19.226H42.517V17.613H8.643Z" transform="translate(-1.354 -3.095)"/><path class="a" d="M40.872,16.839H11.837a.807.807,0,0,1-.807-.807V12.807A.807.807,0,0,1,11.837,12H40.872a.807.807,0,0,1,.807.807v3.226A.806.806,0,0,1,40.872,16.839ZM12.643,15.226H40.065V13.613H12.643Z" transform="translate(-2.128 -2.321)"/><path class="a" d="M39.645,12.839H13.837a.807.807,0,0,1-.807-.807V8.807A.807.807,0,0,1,13.837,8H39.645a.807.807,0,0,1,.807.807v3.226A.806.806,0,0,1,39.645,12.839Zm-25-1.613h24.2V9.613h-24.2Z" transform="translate(-2.515 -1.548)"/><path class="a" d="M33.548,34.452H22.256a3.226,3.226,0,0,1,0-6.452H33.548a3.226,3.226,0,0,1,0,6.452ZM22.256,29.613a1.613,1.613,0,0,0,0,3.226H33.548a1.613,1.613,0,0,0,0-3.226Z" transform="translate(-3.676 -5.417)"/><path class="a" d="M47.615,17.744H.836a.807.807,0,0,1-.749-1.106L6.539.508A.807.807,0,0,1,7.289,0H41.163a.806.806,0,0,1,.748.506l6.452,16.131a.806.806,0,0,1-.748,1.106ZM2.028,16.131h44.4L40.617,1.613H7.835Z" transform="translate(0)"/></g></svg>