<svg xmlns="http://www.w3.org/2000/svg" width="46.697" height="46.697" viewBox="0 0 46.697 46.697"><defs><style>.a{fill:#1a2647;}</style></defs><path class="a" d="M46.966,2.689,46.3,2.024a3.5,3.5,0,0,0-4.945,0l-.489.489H35.049a6.011,6.011,0,0,0-4.28,1.773L25.692,9.363a11.639,11.639,0,0,0-3.432,8.286.756.756,0,0,0,.467.7.747.747,0,0,0,.29.058.757.757,0,0,0,.535-.222L34.46,7.276A.761.761,0,0,1,35,7.054h1.33l-7.033,7.033L16.428,26.951,5.077,38.3a.753.753,0,0,0-.158.238h0l-.005.012v0L2.646,43.838a.757.757,0,0,0,.16.833l.222.221L1.293,46.627l1.07,1.07L4.1,45.962l.222.222a.757.757,0,0,0,.535.222.749.749,0,0,0,.3-.061l5.283-2.264h0l.012-.005v0a.753.753,0,0,0,.238-.158L22.04,32.562,34.9,19.7,46.966,7.635a3.5,3.5,0,0,0,0-4.946ZM40.958,9.546a.753.753,0,0,0-.535-.222H36.2l3.47-3.47,3.47,3.47-1.2,1.2Zm-.092,2.049-4.227,4.227-3.47-3.47,1.514-1.514h5.427ZM35,5.541a2.254,2.254,0,0,0-1.605.665l-9.416,9.416a10.125,10.125,0,0,1,2.789-5.188L31.84,5.357a4.508,4.508,0,0,1,3.209-1.33h4.3L37.839,5.541ZM21.5,30.957l-1.2-1.2L32.1,17.962l1.2,1.2Zm-2.27-2.27-1.2-1.2L29.828,15.692l1.2,1.2ZM5.028,44.751l-.789-.789,1.629-3.8,2.96,2.96Zm5.124-2.443-3.47-3.47L16.963,28.557l3.47,3.47ZM34.369,18.092l-3.47-3.47,1.2-1.2,3.47,3.47ZM45.9,6.565,44.206,8.254l-3.47-3.47,1.689-1.689a2.054,2.054,0,0,1,2.805,0l.665.665a1.983,1.983,0,0,1,0,2.805Z" transform="translate(-1.293 -1)"/></svg>