<svg xmlns="http://www.w3.org/2000/svg" width="43.626" height="55.078" viewBox="0 0 43.626 55.078"><defs><style>.a{fill:#3a435e;}</style></defs><g transform="translate(-32.065 -23.682)"><path class="a" d="M63.445,30.611a1.2,1.2,0,0,0,1.2-1.2V24.877a1.2,1.2,0,0,0-2.391,0v4.539a1.2,1.2,0,0,0,1.2,1.2Z" transform="translate(-9.567)"/><path class="a" d="M80.09,38.123a1.192,1.192,0,0,0,.845-.35l3.21-3.21a1.2,1.2,0,0,0-1.691-1.691l-3.21,3.21a1.2,1.2,0,0,0,.846,2.041Z" transform="translate(-14.843 -2.802)"/><path class="a" d="M91.524,53.866H86.984a1.2,1.2,0,1,0,0,2.391h4.539a1.2,1.2,0,1,0,0-2.391Z" transform="translate(-17.028 -9.567)"/><path class="a" d="M80.935,70.861a1.2,1.2,0,1,0-1.691,1.692l3.21,3.21a1.2,1.2,0,1,0,1.691-1.69Z" transform="translate(-14.843 -14.843)"/><path class="a" d="M44.466,70.861l-3.21,3.21a1.2,1.2,0,1,0,1.691,1.692l3.21-3.21a1.2,1.2,0,0,0-1.691-1.691Z" transform="translate(-2.802 -14.843)"/><path class="a" d="M39,55.061a1.2,1.2,0,0,0-1.2-1.2H33.26a1.2,1.2,0,0,0,0,2.391H37.8A1.2,1.2,0,0,0,39,55.061Z" transform="translate(0 -9.567)"/><path class="a" d="M44.466,37.772a1.2,1.2,0,0,0,1.691-1.691l-3.21-3.21a1.2,1.2,0,1,0-1.691,1.691Z" transform="translate(-2.802 -2.802)"/><path class="a" d="M68.261,57.174A12.416,12.416,0,0,0,57.624,37.448,12.556,12.556,0,0,0,45.846,48.981a12.3,12.3,0,0,0,2.132,7.865,16.642,16.642,0,0,1,3.055,9.388v.443h-.306a1.2,1.2,0,0,0-1.2,1.2v4a1.2,1.2,0,0,0,1.2,1.2h.306v4.675a1.2,1.2,0,0,0,1.2,1.2h2.264v.433a3.743,3.743,0,0,0,7.486,0v-.436h2.264a1.2,1.2,0,0,0,1.2-1.2V73.072h.306a1.2,1.2,0,0,0,1.2-1.2v-4a1.2,1.2,0,0,0-1.2-1.2h-.306v-.444a15.164,15.164,0,0,1,2.823-9.061ZM64.548,69.068v1.613H51.923V69.068Zm-4.96,10.307a1.352,1.352,0,0,1-2.7,0v-.436h2.7Zm3.459-2.826H53.424V73.072h9.623Zm-3.616-9.871V53.251a1.2,1.2,0,1,0-2.391,0V66.677H53.424v-.443A19.023,19.023,0,0,0,49.951,55.5a9.927,9.927,0,0,1-1.72-6.352,10.135,10.135,0,0,1,9.508-9.309A10.022,10.022,0,0,1,66.332,55.76a17.543,17.543,0,0,0-3.285,10.474v.444Z" transform="translate(-4.358 -4.358)"/></g></svg>